<svg width="42" height="32" viewBox="0 0 42 32" fill="none" xmlns="http://www.w3.org/2000/svg">
<g id="TOQ LOGO 1">
<path id="Vector" d="M8.81299 14.1095L10.406 12.5474L11.9989 14.1095L10.406 15.6716L8.81299 14.1095Z" fill="#167BD8"/>
<path id="Vector_2" d="M6.88232 16.003L8.47529 14.4409L10.0683 16.003L8.47529 17.5651L6.88232 16.003Z" fill="#167BD8"/>
<path id="Vector_3" fill-rule="evenodd" clip-rule="evenodd" d="M14.8892 24.0398C16.8443 24.0398 18.4293 22.4855 18.4293 20.5683C18.4293 18.651 16.8443 17.0968 14.8892 17.0968C12.934 17.0968 11.349 18.651 11.349 20.5683C11.349 22.4855 12.934 24.0398 14.8892 24.0398ZM14.8892 26.5645C18.2662 26.5645 21.0039 23.8799 21.0039 20.5683C21.0039 17.2566 18.2662 14.572 14.8892 14.572C11.5121 14.572 8.77441 17.2566 8.77441 20.5683C8.77441 23.8799 11.5121 26.5645 14.8892 26.5645Z" fill="#167BD8"/>
<path id="Vector_4" d="M19.8488 24.3977C20.9705 25.7216 22.662 26.5645 24.5544 26.5645C27.9315 26.5645 30.6691 23.8799 30.6691 20.5683C30.6691 17.2566 27.9315 14.572 24.5544 14.572C22.6259 14.572 20.9059 15.4475 19.7852 16.8153C20.4749 17.6466 20.9447 18.6602 21.1081 19.771C21.4755 18.238 22.879 17.0968 24.5544 17.0968C26.5096 17.0968 28.0945 18.651 28.0945 20.5683C28.0945 22.4855 26.5096 24.0398 24.5544 24.0398C22.8992 24.0398 21.5093 22.9259 21.1218 21.4208C20.977 22.5357 20.5238 23.5563 19.8488 24.3977Z" fill="#167BD8"/>
<path id="Vector_5" d="M28.2729 25.6083C28.8436 25.193 29.339 24.6837 29.7352 24.1038C30.0511 24.566 30.4299 24.9834 30.8598 25.3441L30.7637 27.7939L28.3471 30.346L26.4604 28.628L28.2276 26.7617L28.2729 25.6083Z" fill="#167BD8"/>
<path id="Vector_6" d="M28.5596 12.0722L30.3268 13.9385L30.4163 16.2218C31.1181 15.5601 31.9786 15.0591 32.9363 14.7792L32.8628 12.9063L30.4462 10.3542L28.5596 12.0722Z" fill="#167BD8"/>
<path id="Vector_7" fill-rule="evenodd" clip-rule="evenodd" d="M29.8167 23.9705C30.4551 23.0152 30.8264 21.8729 30.8264 20.6455C30.8264 19.3845 30.4345 18.2133 29.7637 17.2426C30.8601 15.6325 32.73 14.572 34.8525 14.572C38.2297 14.572 40.9673 17.2566 40.9673 20.5683C40.9673 23.8799 38.2297 26.5645 34.8525 26.5645C32.7638 26.5645 30.9197 25.5376 29.8167 23.9705ZM38.3925 20.5683C38.3925 22.4855 36.8076 24.0398 34.8525 24.0398C32.8974 24.0398 31.3124 22.4855 31.3124 20.5683C31.3124 18.651 32.8974 17.0968 34.8525 17.0968C36.8076 17.0968 38.3925 18.651 38.3925 20.5683Z" fill="#167BD8"/>
<path id="Vector_8" d="M17.7784 1.72086C20.7334 0.889744 24.0808 1.69808 26.7215 4.66498C29.092 4.33314 31.238 4.60405 32.9106 5.65998C34.6599 6.76437 35.6672 8.583 35.9547 10.8779C37.0381 11.6909 38.0977 12.6202 38.8716 13.6784C39.6035 14.6798 40.1151 15.8491 40.1082 17.1617C39.242 15.8604 37.8808 14.9049 36.2869 14.5522C35.6727 13.8809 34.873 13.2239 33.9665 12.5719L33.4844 12.2253L33.4434 11.6405C33.303 9.63752 32.5572 8.43958 31.517 7.78282C30.4313 7.09745 28.7586 6.83109 26.4439 7.27043L25.6635 7.41854L25.1789 6.80074C23.0602 4.09975 20.5337 3.57244 18.4882 4.14776C16.3642 4.74517 14.5787 6.57465 14.1068 8.95456L13.8872 10.0619L12.7405 9.97198C10.9105 9.82841 9.69728 10.1485 8.89091 10.7382C8.09381 11.3211 7.48505 12.3208 7.19139 13.9791L7.10464 14.469L6.70048 14.7693C4.19394 16.6317 3.48999 18.2252 3.62398 19.5129C3.76041 20.8237 4.80297 22.3546 7.13886 24.0199H9.71639C10.5799 25.274 11.9083 26.1949 13.4592 26.5446H6.32323L5.99147 26.3179C3.24675 24.4416 1.32238 22.2651 1.06266 19.7692C0.807202 17.3142 2.19882 15.065 4.75202 13.0577C5.15863 11.2216 5.97921 9.71795 7.35182 8.71424C8.58469 7.81265 10.1176 7.42123 11.8591 7.41351C12.7849 4.62475 15.0491 2.48849 17.7784 1.72086Z" fill="#167BD8"/>
</g>
</svg>
